{
  "asset": {
    "version": "2.0",
    "generator": "THREE.GLTFExporter"
  },
  "scenes": [
    {
      "nodes": [
        0
      ]
    }
  ],
  "scene": 0,
  "nodes": [
    {
      "children": [
        10,
        11,
        12,
        13
      ],
      "matrix": [
        0.01,
        0,
        0,
        0,
        0,
        0.01,
        0,
        0,
        0,
        0,
        0.01,
        0,
        0,
        0,
        0,
        1
      ]
    },
    {
      "matrix": [
        1,
        0,
        0,
        0,
        0,
        1,
        0,
        0,
        0,
        0,
        1,
        0,
        -1.1612672708189251,
        -12.268207694682118,
        14.628783733789504,
        1
      ],
      "name": "Merged Geometry 7",
      "mesh": 0
    },
    {
      "matrix": [
        1,
        0,
        0,
        0,
        0,
        1,
        0,
        0,
        0,
        0,
        1,
        0,
        -1.1612672708189251,
        -12.26820769468209,
        30.318783733789505,
        1
      ],
      "name": "Merged Geometry 6",
      "mesh": 1
    },
    {
      "matrix": [
        1,
        0,
        0,
        0,
        0,
        1,
        0,
        0,
        0,
        0,
        1,
        0,
        -1.1612672708189251,
        -12.268207694682104,
        47.22878373378951,
        1
      ],
      "name": "Merged Geometry 5",
      "mesh": 2
    },
    {
      "matrix": [
        1,
        0,
        0,
        0,
        0,
        1,
        0,
        0,
        0,
        0,
        1,
        0,
        -1.1612672708189251,
        -12.268207694682076,
        63.6187837337895,
        1
      ],
      "name": "Merged Geometry 4",
      "mesh": 3
    },
    {
      "matrix": [
        1,
        0,
        0,
        0,
        0,
        1,
        0,
        0,
        0,
        0,
        1,
        0,
        -1.1612672708189251,
        -12.268207694682076,
        79.08878373378951,
        1
      ],
      "name": "Merged Geometry 3",
      "mesh": 4
    },
    {
      "matrix": [
        1,
        0,
        0,
        0,
        0,
        1,
        0,
        0,
        0,
        0,
        1,
        0,
        -1.1612672708189251,
        -12.268207694682076,
        96.14878373378953,
        1
      ],
      "name": "Merged Geometry 2",
      "mesh": 5
    },
    {
      "matrix": [
        1,
        0,
        0,
        0,
        0,
        1,
        0,
        0,
        0,
        0,
        1,
        0,
        -1.1612672708189251,
        -12.268207694682076,
        111.87780401099776,
        1
      ],
      "name": "Merged Geometry",
      "mesh": 6
    },
    {
      "matrix": [
        3.2256783030168004,
        0,
        0,
        0,
        0,
        0.8616567231540134,
        1.0645713782523876,
        0,
        0,
        -1.1217645201733613,
        0.9079484573310195,
        0,
        -0.017991873896150423,
        23.773363769111818,
        -112.12745941975744,
        1.0000000000000002
      ],
      "name": "Cube 2",
      "mesh": 7
    },
    {
      "matrix": [
        3.2256783030167995,
        0,
        0,
        0,
        0,
        1.3695855314476344,
        0,
        0,
        0,
        0,
        1.6005156009145975,
        0,
        0.000014289054590221895,
        -54.355131540143965,
        63.88878373378951,
        1
      ],
      "name": "Cube",
      "mesh": 8
    },
    {
      "matrix": [
        1,
        0,
        0,
        0,
        0,
        1,
        0,
        0,
        0,
        0,
        1,
        0,
        49.99998571094541,
        119.03627297147821,
        -13.88878373378951,
        1
      ],
      "name": "Group",
      "children": [
        1,
        2,
        3,
        4,
        5,
        6,
        7,
        8,
        9
      ]
    },
    {
      "matrix": [
        0.2499977750007752,
        -0.3327859856688483,
        -0.9092604688630618,
        0,
        0.799528912318497,
        0.6006276037336289,
        0,
        0,
        0.5461269365829367,
        -0.7269800336842904,
        0.41622758169410773,
        0,
        0,
        0,
        0,
        1
      ],
      "name": "Directional Light",
      "extensions": {
        "KHR_lights_punctual": {
          "light": 0
        }
      }
    },
    {
      "matrix": [
        0.8837610140104002,
        -3.1898898203430726e-8,
        -0.46793853241137146,
        0,
        -0.22743676130430446,
        0.8739366336399992,
        -0.42954310608994134,
        0,
        0.4089486394679875,
        0.48603987530035514,
        0.7723511182715392,
        0,
        553.027592768905,
        755.4773809429967,
        1023.7596928561316,
        1
      ],
      "camera": 0
    },
    {
      "matrix": [
        1,
        0,
        0,
        0,
        0,
        1,
        0,
        0,
        0,
        0,
        1,
        0,
        0,
        1,
        0,
        1
      ],
      "name": "Default Ambient Light"
    }
  ],
  "bufferViews": [
    {
      "buffer": 0,
      "byteOffset": 0,
      "byteLength": 15552,
      "target": 34962,
      "byteStride": 12
    },
    {
      "buffer": 0,
      "byteOffset": 15552,
      "byteLength": 15552,
      "target": 34962,
      "byteStride": 12
    },
    {
      "buffer": 0,
      "byteOffset": 31104,
      "byteLength": 10272,
      "target": 34963
    },
    {
      "buffer": 0,
      "byteOffset": 41376,
      "byteLength": 15552,
      "target": 34962,
      "byteStride": 12
    },
    {
      "buffer": 0,
      "byteOffset": 56928,
      "byteLength": 15552,
      "target": 34962,
      "byteStride": 12
    },
    {
      "buffer": 0,
      "byteOffset": 72480,
      "byteLength": 10272,
      "target": 34963
    },
    {
      "buffer": 0,
      "byteOffset": 82752,
      "byteLength": 15552,
      "target": 34962,
      "byteStride": 12
    },
    {
      "buffer": 0,
      "byteOffset": 98304,
      "byteLength": 15552,
      "target": 34962,
      "byteStride": 12
    },
    {
      "buffer": 0,
      "byteOffset": 113856,
      "byteLength": 10272,
      "target": 34963
    },
    {
      "buffer": 0,
      "byteOffset": 124128,
      "byteLength": 15552,
      "target": 34962,
      "byteStride": 12
    },
    {
      "buffer": 0,
      "byteOffset": 139680,
      "byteLength": 15552,
      "target": 34962,
      "byteStride": 12
    },
    {
      "buffer": 0,
      "byteOffset": 155232,
      "byteLength": 10272,
      "target": 34963
    },
    {
      "buffer": 0,
      "byteOffset": 165504,
      "byteLength": 15552,
      "target": 34962,
      "byteStride": 12
    },
    {
      "buffer": 0,
      "byteOffset": 181056,
      "byteLength": 15552,
      "target": 34962,
      "byteStride": 12
    },
    {
      "buffer": 0,
      "byteOffset": 196608,
      "byteLength": 10272,
      "target": 34963
    },
    {
      "buffer": 0,
      "byteOffset": 206880,
      "byteLength": 15552,
      "target": 34962,
      "byteStride": 12
    },
    {
      "buffer": 0,
      "byteOffset": 222432,
      "byteLength": 15552,
      "target": 34962,
      "byteStride": 12
    },
    {
      "buffer": 0,
      "byteOffset": 237984,
      "byteLength": 10272,
      "target": 34963
    },
    {
      "buffer": 0,
      "byteOffset": 248256,
      "byteLength": 7488,
      "target": 34962,
      "byteStride": 12
    },
    {
      "buffer": 0,
      "byteOffset": 255744,
      "byteLength": 7488,
      "target": 34962,
      "byteStride": 12
    },
    {
      "buffer": 0,
      "byteOffset": 263232,
      "byteLength": 4896,
      "target": 34963
    },
    {
      "buffer": 0,
      "byteOffset": 268128,
      "byteLength": 672,
      "target": 34962,
      "byteStride": 12
    },
    {
      "buffer": 0,
      "byteOffset": 268800,
      "byteLength": 672,
      "target": 34962,
      "byteStride": 12
    },
    {
      "buffer": 0,
      "byteOffset": 269472,
      "byteLength": 336,
      "target": 34963
    },
    {
      "buffer": 0,
      "byteOffset": 269808,
      "byteLength": 672,
      "target": 34962,
      "byteStride": 12
    },
    {
      "buffer": 0,
      "byteOffset": 270480,
      "byteLength": 672,
      "target": 34962,
      "byteStride": 12
    },
    {
      "buffer": 0,
      "byteOffset": 271152,
      "byteLength": 336,
      "target": 34963
    }
  ],
  "buffers": [
    {
      "byteLength": 271488,
      "uri": "data:application/octet-stream;base64,"
    }
  ],
  "accessors": [
    {
      "bufferView": 0,
      "componentType": 5126,
      "count": 1296,
      "max": [
        128.8621063232422,
        74.08941650390625,
        4
      ],
      "min": [
        -128.8621063232422,
        -74.08941650390625,
        -4
      ],
      "type": "VEC3"
    },
    {
      "bufferView": 1,
      "componentType": 5126,
      "count": 1296,
      "max": [
        0.9997552633285522,
        0.9999794960021973,
        1
      ],
      "min": [
        -0.9997552633285522,
        -0.9999802708625793,
        -1
      ],
      "type": "VEC3"
    },
    {
      "bufferView": 2,
      "componentType": 5125,
      "count": 2568,
      "max": [
        1295
      ],
      "min": [
        0
      ],
      "type": "SCALAR"
    },
    {
      "bufferView": 3,
      "componentType": 5126,
      "count": 1296,
      "max": [
        128.8621063232422,
        74.08941650390625,
        4
      ],
      "min": [
        -128.8621063232422,
        -74.08941650390625,
        -4
      ],
      "type": "VEC3"
    },
    {
      "bufferView": 4,
      "componentType": 5126,
      "count": 1296,
      "max": [
        0.9997552633285522,
        0.9999794960021973,
        1
      ],
      "min": [
        -0.9997552633285522,
        -0.9999802708625793,
        -1
      ],
      "type": "VEC3"
    },
    {
      "bufferView": 5,
      "componentType": 5125,
      "count": 2568,
      "max": [
        1295
      ],
      "min": [
        0
      ],
      "type": "SCALAR"
    },
    {
      "bufferView": 6,
      "componentType": 5126,
      "count": 1296,
      "max": [
        128.8621063232422,
        74.08941650390625,
        4
      ],
      "min": [
        -128.8621063232422,
        -74.08941650390625,
        -4
      ],
      "type": "VEC3"
    },
    {
      "bufferView": 7,
      "componentType": 5126,
      "count": 1296,
      "max": [
        0.9997552633285522,
        0.9999794960021973,
        1
      ],
      "min": [
        -0.9997552633285522,
        -0.9999802708625793,
        -1
      ],
      "type": "VEC3"
    },
    {
      "bufferView": 8,
      "componentType": 5125,
      "count": 2568,
      "max": [
        1295
      ],
      "min": [
        0
      ],
      "type": "SCALAR"
    },
    {
      "bufferView": 9,
      "componentType": 5126,
      "count": 1296,
      "max": [
        128.8621063232422,
        74.08941650390625,
        4
      ],
      "min": [
        -128.8621063232422,
        -74.08941650390625,
        -4
      ],
      "type": "VEC3"
    },
    {
      "bufferView": 10,
      "componentType": 5126,
      "count": 1296,
      "max": [
        0.9997552633285522,
        0.9999794960021973,
        1
      ],
      "min": [
        -0.9997552633285522,
        -0.9999802708625793,
        -1
      ],
      "type": "VEC3"
    },
    {
      "bufferView": 11,
      "componentType": 5125,
      "count": 2568,
      "max": [
        1295
      ],
      "min": [
        0
      ],
      "type": "SCALAR"
    },
    {
      "bufferView": 12,
      "componentType": 5126,
      "count": 1296,
      "max": [
        128.8621063232422,
        74.08941650390625,
        4
      ],
      "min": [
        -128.8621063232422,
        -74.08941650390625,
        -4
      ],
      "type": "VEC3"
    },
    {
      "bufferView": 13,
      "componentType": 5126,
      "count": 1296,
      "max": [
        0.9997552633285522,
        0.9999794960021973,
        1
      ],
      "min": [
        -0.9997552633285522,
        -0.9999802708625793,
        -1
      ],
      "type": "VEC3"
    },
    {
      "bufferView": 14,
      "componentType": 5125,
      "count": 2568,
      "max": [
        1295
      ],
      "min": [
        0
      ],
      "type": "SCALAR"
    },
    {
      "bufferView": 15,
      "componentType": 5126,
      "count": 1296,
      "max": [
        128.8621063232422,
        74.08941650390625,
        4
      ],
      "min": [
        -128.8621063232422,
        -74.08941650390625,
        -4
      ],
      "type": "VEC3"
    },
    {
      "bufferView": 16,
      "componentType": 5126,
      "count": 1296,
      "max": [
        0.9997552633285522,
        0.9999794960021973,
        1
      ],
      "min": [
        -0.9997552633285522,
        -0.9999802708625793,
        -1
      ],
      "type": "VEC3"
    },
    {
      "bufferView": 17,
      "componentType": 5125,
      "count": 2568,
      "max": [
        1295
      ],
      "min": [
        0
      ],
      "type": "SCALAR"
    },
    {
      "bufferView": 18,
      "componentType": 5126,
      "count": 624,
      "max": [
        128.8621063232422,
        74.08941650390625,
        4
      ],
      "min": [
        -128.8621063232422,
        -74.08941650390625,
        -4
      ],
      "type": "VEC3"
    },
    {
      "bufferView": 19,
      "componentType": 5126,
      "count": 624,
      "max": [
        0.9977924227714539,
        0.9999592304229736,
        1
      ],
      "min": [
        -0.9977687001228333,
        -0.9999675154685974,
        -1
      ],
      "type": "VEC3"
    },
    {
      "bufferView": 20,
      "componentType": 5125,
      "count": 1224,
      "max": [
        623
      ],
      "min": [
        0
      ],
      "type": "SCALAR"
    },
    {
      "bufferView": 21,
      "componentType": 5126,
      "count": 56,
      "max": [
        49.994422912597656,
        49.872318267822266,
        50
      ],
      "min": [
        -49.994422912597656,
        12.78478717803955,
        -50
      ],
      "type": "VEC3"
    },
    {
      "bufferView": 22,
      "componentType": 5126,
      "count": 56,
      "max": [
        1,
        1,
        1
      ],
      "min": [
        -1,
        -1,
        -1
      ],
      "type": "VEC3"
    },
    {
      "bufferView": 23,
      "componentType": 5125,
      "count": 84,
      "max": [
        55
      ],
      "min": [
        0
      ],
      "type": "SCALAR"
    },
    {
      "bufferView": 24,
      "componentType": 5126,
      "count": 56,
      "max": [
        49.999996185302734,
        50,
        50
      ],
      "min": [
        -49.999996185302734,
        -50,
        -50
      ],
      "type": "VEC3"
    },
    {
      "bufferView": 25,
      "componentType": 5126,
      "count": 56,
      "max": [
        0.9999999403953552,
        1,
        0.9999999403953552
      ],
      "min": [
        -0.9999999403953552,
        -0.9999999403953552,
        -0.9999999403953552
      ],
      "type": "VEC3"
    },
    {
      "bufferView": 26,
      "componentType": 5125,
      "count": 84,
      "max": [
        55
      ],
      "min": [
        0
      ],
      "type": "SCALAR"
    }
  ],
  "materials": [
    {
      "pbrMetallicRoughness": {
        "baseColorFactor": [
          0.651405637412793,
          0.17144110072255403,
          0.31854677811435356,
          1
        ],
        "metallicFactor": 0,
        "roughnessFactor": 0.8
      },
      "doubleSided": false
    },
    {
      "pbrMetallicRoughness": {
        "baseColorFactor": [
          0.9386857284565036,
          0.35640014413537763,
          0.41254261347374327,
          1
        ],
        "metallicFactor": 0,
        "roughnessFactor": 0.8
      },
      "doubleSided": false
    },
    {
      "pbrMetallicRoughness": {
        "baseColorFactor": [
          0.051269458367115384,
          0.13013647668074665,
          0.3371636150376657,
          1
        ],
        "metallicFactor": 0,
        "roughnessFactor": 0.8
      },
      "doubleSided": false
    },
    {
      "pbrMetallicRoughness": {
        "baseColorFactor": [
          0.7230551289161951,
          0.8148465722120952,
          0.11443537381770343,
          1
        ],
        "metallicFactor": 0,
        "roughnessFactor": 0.8
      },
      "doubleSided": false
    },
    {
      "pbrMetallicRoughness": {
        "baseColorFactor": [
          0.2788942634659966,
          0.46207699964472876,
          0.17788841597328695,
          1
        ],
        "metallicFactor": 0,
        "roughnessFactor": 0.8
      },
      "doubleSided": false
    },
    {
      "pbrMetallicRoughness": {
        "baseColorFactor": [
          0.9301108583738498,
          0.31854677811435356,
          0.1412632911304446,
          1
        ],
        "metallicFactor": 0,
        "roughnessFactor": 0.8
      },
      "doubleSided": false
    },
    {
      "pbrMetallicRoughness": {
        "baseColorFactor": [
          0.15292615198613213,
          0.3005437944049895,
          0.19806931954941637,
          1
        ],
        "metallicFactor": 0,
        "roughnessFactor": 0.8
      },
      "doubleSided": false
    },
    {
      "pbrMetallicRoughness": {
        "baseColorFactor": [
          0.982250550332711,
          0.9301108583738498,
          0.7991027380100881,
          1
        ],
        "metallicFactor": 0,
        "roughnessFactor": 0.8
      },
      "doubleSided": false
    }
  ],
  "meshes": [
    {
      "primitives": [
        {
          "mode": 4,
          "attributes": {
            "POSITION": 0,
            "NORMAL": 1
          },
          "extras": {
            "type": "SubdivGeometry",
            "parameters": {
              "width": 257.7242126464844,
              "height": 148.1788330078125,
              "depth": 8
            }
          },
          "indices": 2,
          "material": 0
        }
      ]
    },
    {
      "primitives": [
        {
          "mode": 4,
          "attributes": {
            "POSITION": 3,
            "NORMAL": 4
          },
          "extras": {
            "type": "SubdivGeometry",
            "parameters": {
              "width": 257.7242126464844,
              "height": 148.1788330078125,
              "depth": 8
            }
          },
          "indices": 5,
          "material": 1
        }
      ]
    },
    {
      "primitives": [
        {
          "mode": 4,
          "attributes": {
            "POSITION": 6,
            "NORMAL": 7
          },
          "extras": {
            "type": "SubdivGeometry",
            "parameters": {
              "width": 257.7242126464844,
              "height": 148.1788330078125,
              "depth": 8
            }
          },
          "indices": 8,
          "material": 2
        }
      ]
    },
    {
      "primitives": [
        {
          "mode": 4,
          "attributes": {
            "POSITION": 9,
            "NORMAL": 10
          },
          "extras": {
            "type": "SubdivGeometry",
            "parameters": {
              "width": 257.7242126464844,
              "height": 148.1788330078125,
              "depth": 8
            }
          },
          "indices": 11,
          "material": 3
        }
      ]
    },
    {
      "primitives": [
        {
          "mode": 4,
          "attributes": {
            "POSITION": 12,
            "NORMAL": 13
          },
          "extras": {
            "type": "SubdivGeometry",
            "parameters": {
              "width": 257.7242126464844,
              "height": 148.1788330078125,
              "depth": 8
            }
          },
          "indices": 14,
          "material": 4
        }
      ]
    },
    {
      "primitives": [
        {
          "mode": 4,
          "attributes": {
            "POSITION": 15,
            "NORMAL": 16
          },
          "extras": {
            "type": "SubdivGeometry",
            "parameters": {
              "width": 257.7242126464844,
              "height": 148.1788330078125,
              "depth": 8
            }
          },
          "indices": 17,
          "material": 5
        }
      ]
    },
    {
      "primitives": [
        {
          "mode": 4,
          "attributes": {
            "POSITION": 18,
            "NORMAL": 19
          },
          "extras": {
            "type": "SubdivGeometry",
            "parameters": {
              "width": 257.7242126464844,
              "height": 148.1788330078125,
              "depth": 8
            }
          },
          "indices": 20,
          "material": 6
        }
      ]
    },
    {
      "primitives": [
        {
          "mode": 4,
          "attributes": {
            "POSITION": 21,
            "NORMAL": 22
          },
          "extras": {
            "type": "SubdivGeometry",
            "parameters": {
              "width": 99.98884582519531,
              "height": 37.087531089782715,
              "depth": 100
            }
          },
          "indices": 23,
          "material": 7
        }
      ]
    },
    {
      "primitives": [
        {
          "mode": 4,
          "attributes": {
            "POSITION": 24,
            "NORMAL": 25
          },
          "extras": {
            "type": "SubdivGeometry",
            "parameters": {
              "width": 99.99999237060547,
              "height": 100,
              "depth": 100
            }
          },
          "indices": 26,
          "material": 7
        }
      ]
    }
  ],
  "extensions": {
    "KHR_lights_punctual": {
      "lights": [
        {
          "name": "Directional Light",
          "color": [
            1,
            1,
            1
          ],
          "intensity": 0.7,
          "type": "directional"
        }
      ]
    }
  },
  "cameras": [
    {
      "type": "orthographic",
      "orthographic": {
        "xmag": 7.2,
        "ymag": 3.48,
        "zfar": 100000,
        "znear": 0
      }
    }
  ],
  "extensionsUsed": [
    "KHR_lights_punctual"
  ]
}